<?xml version="1.0" encoding="UTF-8" standalone="no"?>
<!DOCTYPE svg PUBLIC "-//W3C//DTD SVG 1.1//EN" "http://www.w3.org/Graphics/SVG/1.1/DTD/svg11.dtd">
<svg width="100%" height="100%" viewBox="0 0 1500 1500" version="1.1" xmlns="http://www.w3.org/2000/svg" xmlns:xlink="http://www.w3.org/1999/xlink" xml:space="preserve" xmlns:serif="http://www.serif.com/" style="fill-rule:evenodd;clip-rule:evenodd;stroke-linejoin:round;stroke-miterlimit:2;">
    <g transform="matrix(1.120501,0,0,1.120501,430.657266,515.815328)">
        <g>
            <g transform="matrix(2.48059,0,0,2.48059,-315.265815,-431.008155)">
                <path d="M339.975,422.917C340.143,423.262 340.231,423.193 340.395,423.53C340.7,424.157 340.563,424.193 340.612,424.224C340.873,424.39 341.231,424.27 341.54,424.257C347.597,424.01 347.586,424.034 412.5,424.034C440.293,424.034 443.542,423.644 451.52,426.446C459.442,429.228 463.26,432.59 463.851,433.026C491.902,453.727 486.915,498.792 451.53,511.582C448.963,512.51 443.266,513.707 440.525,513.845C437.814,513.982 437.815,513.966 345.5,513.966C332.823,513.966 332.631,514.073 332.034,513.5C331.92,513.39 332.063,513.367 332.035,511.512L332.034,489.5C332.034,486.889 331.525,484.499 333.396,484.081C333.631,484.029 333.631,484.034 426.5,484.034C437.845,484.034 444.324,485.066 449.772,476.661C454.351,469.597 450.85,460.62 446.502,457.498C441.758,454.092 439.813,454.042 434.5,454.035C235.76,453.77 235.767,454.194 218.49,453.828C214.439,453.742 202.988,452.737 202.478,452.661C198.479,452.063 198.463,452.278 194.481,451.629C176.647,448.721 170.332,446.68 164.615,445.078C138.874,437.863 112.615,424.15 93.373,409.678C57.425,382.639 39.814,354.345 30.318,337.605C13.44,307.85 6.877,275.689 6.204,271.556C4.661,262.084 -13.687,181.334 41.389,100.422C72.509,54.703 112.995,33.341 115.632,31.731C121.741,28.002 136.683,20.886 140.461,19.407C158.196,12.466 161.852,11.368 178.463,7.353C183.23,6.201 186.658,5.766 187.517,5.589C197.963,3.443 211.016,2.663 212.501,2.517C220.964,1.686 237.387,2.156 239.513,2.326C254.556,3.529 262.532,4.386 278.4,7.952C298.555,12.482 320.274,22.035 325.365,24.771C333.508,29.147 356.32,39.561 383.326,65.681C411.863,93.283 425.508,121.926 426.818,124.338C432.866,135.473 439.214,152.099 441.957,161.369C445.777,174.28 451.519,194.98 451.932,225.488C453.051,308.214 409.04,379.566 347.19,419.012C343.718,421.227 343.718,421.217 339.975,422.917Z" style="fill-opacity:1;"/>
            </g>
            <g transform="matrix(2.48059,0,0,2.48059,-315.265815,-431.008155)">
                <path d="M212.04,48.502C211.769,65.406 215.163,83.961 216.456,89.51C217.752,95.075 218.329,95.974 216.452,97.438C216.424,97.46 212.837,99.981 212.376,100.325C207.861,103.685 206.035,104.78 198.184,111.107C193.955,114.516 194.034,114.631 193.576,114.727C192.232,115.01 192.088,114.737 191.717,113.418C188.415,101.683 182.308,81.374 182.048,49.508C182.024,46.468 181.868,38.617 182.656,37.626C183.553,36.499 189.472,35.76 196.482,34.403C196.735,34.354 209.968,32.452 211.408,32.838C212.434,33.114 212.45,34.346 212.452,34.503C212.467,35.623 212.127,35.605 212.04,48.502Z" style="fill:rgb(189,166,206);fill-opacity:1;"/>
            </g>
            <g transform="matrix(2.48059,0,0,2.48059,-315.265815,-431.008155)">
                <path d="M302.091,409.094C275.161,418.878 274.601,418.224 257.516,421.588C255.963,421.894 242.519,423.694 233.51,423.864C232.068,423.891 217.627,424.164 215.474,423.606C213.945,423.21 213.97,421.975 213.334,417.522C213.26,417.01 212.402,406.583 212.284,404.512C211.491,390.555 212.437,379.662 212.623,377.51C212.826,375.176 213.047,370.762 213.351,370.398C214.185,369.403 214.418,369.728 215.582,370.327C216.095,370.591 216.055,370.647 221.781,374.018C224.622,375.691 233.319,380.293 234.328,380.827C260.221,394.528 290.955,405.225 300.541,407.418C300.668,407.447 302.025,407.757 302.096,407.911C302.118,407.958 301.808,407.831 301.805,408.491C301.804,408.843 302.093,408.743 302.091,409.094Z" style="fill:rgb(189,166,206);fill-opacity:1;"/>
            </g>
            <g transform="matrix(2.48059,0,0,2.48059,-315.265815,-431.008155)">
                <path d="M407.497,213.027C394.628,212.913 375.819,211.654 353.64,204.088C348.769,202.426 345.694,201.014 343.565,200.38C342.811,200.155 342.578,200.285 342.5,199.5C342.413,198.634 342.488,198.55 343.297,198.236C371.937,187.13 392.033,185.216 397.491,184.424C398.653,184.255 414.199,182.901 415.563,183.167C417.179,183.481 417.418,185.691 417.942,188.411C418.036,188.899 420.032,197.769 421.095,209.537C421.395,212.849 419.655,212.542 415.52,212.797C414.879,212.837 414.888,212.776 407.497,213.027Z" style="fill:rgb(189,166,206);fill-opacity:1;"/>
            </g>
            <g transform="matrix(2.48059,0,0,2.48059,-315.265815,-431.008155)">
                <path d="M122.971,71.47C122.673,65.047 122.554,65.058 122.536,64.499C122.47,62.413 123.433,62.133 125.617,60.688C132.907,55.866 149.661,47.907 150.546,47.726C151.552,47.521 151.983,48.482 152.04,48.609C152.25,49.077 151.096,74.62 159.09,107.6C162.904,123.337 166.139,131.356 167.524,135.492C168.528,138.491 167.325,138.486 160.612,145.605C146.716,160.341 147.085,161.715 145.68,161.14C144.948,160.84 145.17,160.62 143.444,156.524C139.729,147.71 139.887,147.344 138.434,143.525C131.856,126.234 124.784,96.718 122.971,71.47Z" style="fill:rgb(189,166,206);fill-opacity:1;"/>
            </g>
            <g transform="matrix(2.48059,0,0,2.48059,-315.265815,-431.008155)">
                <path d="M363.445,359.954C368.754,360.617 369.177,360.559 369.201,361.507C369.223,362.337 368.925,362.235 366.613,364.609C364.831,366.439 354.849,376.685 342.612,385.666C340.517,387.204 338.951,386.124 328.596,384.019C328.283,383.955 291.824,376.212 253.708,357.085C239.321,349.865 220.842,338.821 220.267,337.655C219.742,336.59 219.509,336.397 223.206,325.401C225.769,317.776 228.99,309.94 229.545,309.553C231.27,308.351 231.105,310.284 253.648,323.238C262.449,328.296 283,338.457 299.601,344.205C300.144,344.392 313.694,349.603 334.469,354.629C338.54,355.614 355.944,359.198 363.445,359.954Z" style="fill:rgb(189,166,206);fill-opacity:1;"/>
            </g>
            <g transform="matrix(2.48059,0,0,2.48059,-315.265815,-431.008155)">
                <path d="M95.058,91.557C96.45,104.501 101.352,126.407 105.451,139.516C114.121,167.241 119.377,176.111 123.562,185.47C124.98,188.64 125.566,189.022 123.237,192.323C121.292,195.078 118.342,199.797 117.763,200.666C117.054,201.731 112.93,208.484 111.687,210.611C111.451,211.014 109.402,214.518 108.788,215.678C108.194,216.802 108.509,217.225 107.458,217.361C105.919,217.559 106.163,216.903 105.501,215.499C104.784,213.978 100.6,206.824 98.594,202.453C98.394,202.018 94.357,194.147 92.425,189.534C87.977,178.915 78.024,158.847 69.31,118.544C68.418,114.415 68.292,114.116 70.857,110.769C77.911,101.569 82.334,96.366 90.845,87.853C91.622,87.076 91.622,87.106 92.366,86.3C92.462,86.195 93.353,85.229 94.099,85.884C94.32,86.079 94.357,86.11 95.058,91.557Z" style="fill:rgb(189,166,206);fill-opacity:1;"/>
            </g>
            <g transform="matrix(2.48059,0,0,2.48059,-315.265815,-431.008155)">
                <path d="M406.497,242.963C419.455,243.159 421.291,241.511 421.227,244.497C421.097,250.483 417.856,270.293 416.912,271.732C415.788,273.447 415.282,272.644 407.507,272.959C405.957,273.022 375.365,273.795 340.631,263.076C308.182,253.062 284.14,236.5 283.991,236.173C283.695,235.525 284.386,234.588 284.47,234.474C284.604,234.292 284.668,234.364 286.627,232.648C294.397,225.844 306.97,217.237 307.719,216.985C309.973,216.229 311.339,218.369 321.619,223.244C343.001,233.383 368.883,242.626 406.497,242.963Z" style="fill:rgb(189,166,206);fill-opacity:1;"/>
            </g>
            <g transform="matrix(2.48059,0,0,2.48059,-315.265815,-431.008155)">
                <path d="M309.04,51.129C305.824,52.474 305.747,52.207 302.445,53.344C285.696,59.112 263.702,69.167 253.63,74.756C253.065,75.069 246.756,78.57 246.535,78.62C245.218,78.918 244.963,78.774 244.674,77.446C242.916,69.347 241.698,52.083 241.992,45.507C242.322,38.134 242.05,33.448 243.642,32.968C245.643,32.363 270.595,35.615 289.544,42.375C293.717,43.864 293.78,43.679 306.312,48.928C307.322,49.351 307.327,49.288 308.356,49.695C308.582,49.784 308.919,49.77 309.023,49.99C309.042,50.031 308.71,49.837 308.719,50.468C308.725,50.852 309.034,50.74 309.04,51.129Z" style="fill:rgb(189,166,206);fill-opacity:1;"/>
            </g>
            <g transform="matrix(2.48059,0,0,2.48059,-315.265815,-431.008155)">
                <path d="M383.53,332.041C324.981,327.17 285.555,305.739 280.524,303.451C273.232,300.135 255.589,289.755 251.34,286.739C246.356,283.202 246.24,283.384 245.809,283.074C244.572,282.185 244.318,282.077 244.765,280.61C244.866,280.28 249.529,273.297 250.733,271.663C251.545,270.561 260.375,258.578 261.411,258.287C262.974,257.849 262.915,258.503 269.426,262.613C281.353,270.143 286.954,272.962 290.381,274.728C327.48,293.852 355.144,297.595 365.477,299.62C373.414,301.175 389.412,302.34 391.5,302.492C404.356,303.428 405.76,302.42 406.397,303.563C406.751,304.2 405.849,305.925 405.59,306.54C401.787,315.559 395.833,326.123 393.215,330.326C391.387,333.26 390.152,332.341 385.528,332.126C384.862,332.095 384.196,332.072 383.53,332.041Z" style="fill:rgb(189,166,206);fill-opacity:1;"/>
            </g>
            <g transform="matrix(2.48059,0,0,2.48059,-315.265815,-431.008155)">
                <path d="M122.059,388.494C122.065,389.052 122.256,391.324 121.824,391.76C120.852,392.74 120.651,392.242 119.53,391.453C117.752,390.201 109.703,384.869 101.338,377.695C100.777,377.214 96.752,373.762 94.44,371.564C91.916,369.163 93.249,367.369 93.912,357.54C94.064,355.291 95.98,340.677 97.606,332.52C98.183,329.624 100.602,314.874 107.652,292.55C114.687,270.271 123.401,252.632 125.053,249.287C126.538,246.281 133.165,231.435 148.925,207.794C149.991,206.194 159.672,192.562 163.742,187.696C166.449,184.46 169.322,180.63 174.693,174.671C178.309,170.659 178.191,170.43 187.212,161.219C232.751,114.719 282.2,93.93 289.584,90.689C308.796,82.256 324.116,77.785 331.524,75.578C333.486,74.994 340.593,73.216 341.383,73.018C343.875,72.394 343.857,72.291 344.513,72.344C345.926,72.46 347.926,74.451 348.781,75.153C353.379,78.928 355.16,80.023 364.652,89.345C367.426,92.069 367.322,92.141 370.059,94.895C370.167,95.004 371.118,95.961 371.092,96.522C371.011,98.215 369.778,96.727 350.535,101.632C332.808,106.15 332.994,106.721 323.56,109.679C311.127,113.577 288.502,123.558 270.768,133.949C259.417,140.6 244.897,150.754 240.377,154.338C235.494,158.21 218.65,170.898 199.747,191.72C145.957,250.973 122.678,324.275 122.059,388.494Z" style="fill:rgb(189,166,206);fill-opacity:1;"/>
            </g>
            <g transform="matrix(2.48059,0,0,2.48059,-315.265815,-431.008155)">
                <path d="M31.975,228.498C32.291,220.49 31.986,220.487 32.699,212.516C33.556,202.921 33.56,202.94 35.1,193.431C37.272,180.007 42.43,164.499 43.574,161.528C45.954,155.343 45.565,155.202 45.887,154.726C46.023,154.526 47.205,154.334 47.484,154.517C47.651,154.626 48.112,156.44 48.156,156.61C48.745,158.925 53.506,175.356 62.654,196.432C75.362,225.708 86.374,241.899 88.428,245.545C90.548,249.308 91.884,249.382 90.227,253.387C89.336,255.541 84.031,268.366 79.956,280.649C79.613,281.68 77.339,288.536 75.948,293.621C69.471,317.292 68.343,325.962 67.672,329.532C66.336,336.634 66.87,337.439 65.528,337.345C64.062,337.242 64.591,336.537 63.84,335.273C62.919,333.724 62.849,333.787 61.917,332.24C61.344,331.291 56.72,323.621 54.962,320.255C48.503,307.884 44.632,297.406 43.877,295.361C31.282,261.265 32.018,229.89 31.975,228.498Z" style="fill:rgb(189,166,206);fill-opacity:1;"/>
            </g>
            <g transform="matrix(2.48059,0,0,2.48059,-315.265815,-431.008155)">
                <path d="M151.971,392.501C152.305,380.308 151.415,324.579 186.128,262.296C208.691,221.814 236.395,197.433 241.648,192.666C243.92,190.603 256.183,179.473 271.824,168.985C309.488,143.731 341.263,135.387 351.482,132.442C363.588,128.953 382.341,125.706 389.549,124.951C393.335,124.554 393.276,125.929 394.781,128.334C399.876,136.473 406.234,150.613 406.501,151.5C407.829,155.916 403.349,151.379 368.411,159.109C333.149,166.911 304.902,183.422 300.342,186.224C293.948,190.152 282.508,196.8 266.448,210.438C253.107,221.767 244.927,231.278 243.667,232.651C222.454,255.78 208.455,282.422 203.24,294.387C194.492,314.456 181.773,346.935 182.05,395.507C182.161,414.97 184.088,417.618 182.493,418.485C181.376,419.092 164.344,413.789 158.509,411.477C153.04,409.309 152.737,409.186 152.424,407.512C152.303,406.862 152.015,400.22 151.971,392.501Z" style="fill:rgb(189,166,206);fill-opacity:1;"/>
            </g>
        </g>
    </g>
</svg>
